<svg width="177" height="28" viewBox="0 0 177 28" fill="none" xmlns="http://www.w3.org/2000/svg">
<path opacity="0.95" d="M0 4C0 1.79086 1.79086 0 4 0H177V28H4C1.79086 28 0 26.2091 0 24V4Z" fill="#F49F1F"/>
<path d="M24.0184 8.16667H22.3517V7.33333C22.3517 6.875 21.9767 6.5 21.5184 6.5H14.8517C14.3934 6.5 14.0184 6.875 14.0184 7.33333V8.16667H12.3517C11.4351 8.16667 10.6851 8.91667 10.6851 9.83333V10.6667C10.6851 12.7917 12.2851 14.525 14.3434 14.7833C14.8684 16.0333 15.9934 16.975 17.3517 17.25V19.8333H14.8517C14.3934 19.8333 14.0184 20.2083 14.0184 20.6667C14.0184 21.125 14.3934 21.5 14.8517 21.5H21.5184C21.9767 21.5 22.3517 21.125 22.3517 20.6667C22.3517 20.2083 21.9767 19.8333 21.5184 19.8333H19.0184V17.25C20.3767 16.975 21.5017 16.0333 22.0267 14.7833C24.0851 14.525 25.6851 12.7917 25.6851 10.6667V9.83333C25.6851 8.91667 24.9351 8.16667 24.0184 8.16667ZM14.0184 13.0167C13.0517 12.6667 12.3517 11.75 12.3517 10.6667V9.83333H14.0184V13.0167ZM24.0184 10.6667C24.0184 11.75 23.3184 12.6667 22.3517 13.0167V9.83333H24.0184V10.6667Z" fill="#F9F9F9"/>
<path d="M37.5713 10.2637C36.6325 10.2637 35.8942 10.5964 35.3564 11.2617C34.8187 11.9271 34.5498 12.8454 34.5498 14.0166C34.5498 15.2425 34.8073 16.1699 35.3223 16.7988C35.8418 17.4277 36.5915 17.7422 37.5713 17.7422C37.9951 17.7422 38.4053 17.7012 38.8018 17.6191C39.1982 17.5326 39.6107 17.4232 40.0391 17.291V18.6924C39.2552 18.9886 38.3665 19.1367 37.373 19.1367C35.9102 19.1367 34.7868 18.6947 34.0029 17.8105C33.2191 16.9219 32.8271 15.6527 32.8271 14.0029C32.8271 12.9639 33.0163 12.0547 33.3945 11.2754C33.7773 10.4961 34.3288 9.89909 35.0488 9.48438C35.7689 9.06966 36.6143 8.8623 37.585 8.8623C38.6058 8.8623 39.5492 9.0765 40.415 9.50488L39.8271 10.8652C39.4899 10.7057 39.1322 10.5667 38.7539 10.4482C38.3802 10.3252 37.986 10.2637 37.5713 10.2637ZM46.752 19L46.4307 17.9473H46.376C46.0114 18.4076 45.6445 18.722 45.2754 18.8906C44.9062 19.0547 44.4323 19.1367 43.8535 19.1367C43.1107 19.1367 42.5296 18.9362 42.1104 18.5352C41.6956 18.1341 41.4883 17.5667 41.4883 16.833C41.4883 16.0537 41.7777 15.4658 42.3564 15.0693C42.9352 14.6729 43.8171 14.4564 45.002 14.4199L46.3076 14.3789V13.9756C46.3076 13.4925 46.1937 13.1325 45.9658 12.8955C45.7425 12.654 45.3939 12.5332 44.9199 12.5332C44.5326 12.5332 44.1611 12.5902 43.8057 12.7041C43.4502 12.818 43.1084 12.9525 42.7803 13.1074L42.2607 11.959C42.6709 11.7448 43.1198 11.583 43.6074 11.4736C44.0951 11.3597 44.5553 11.3027 44.9883 11.3027C45.9499 11.3027 46.6745 11.5124 47.1621 11.9316C47.6543 12.3509 47.9004 13.0094 47.9004 13.9072V19H46.752ZM44.3594 17.9062C44.9427 17.9062 45.4098 17.7445 45.7607 17.4209C46.1162 17.0928 46.2939 16.6348 46.2939 16.0469V15.3906L45.3232 15.4316C44.5667 15.459 44.0153 15.5866 43.6689 15.8145C43.3271 16.0378 43.1562 16.3818 43.1562 16.8467C43.1562 17.1839 43.2565 17.446 43.457 17.6328C43.6576 17.8151 43.9583 17.9062 44.3594 17.9062ZM56.5137 19H54.9004V14.3379C54.9004 13.7591 54.791 13.3285 54.5723 13.0459C54.3535 12.7588 54.0117 12.6152 53.5469 12.6152C52.9271 12.6152 52.4714 12.818 52.1797 13.2236C51.8926 13.6247 51.749 14.2946 51.749 15.2334V19H50.1426V11.4395H51.4004L51.626 12.4307H51.708C51.9176 12.0706 52.2207 11.7926 52.6172 11.5967C53.0182 11.4007 53.458 11.3027 53.9365 11.3027C55.0986 11.3027 55.8688 11.6992 56.2471 12.4922H56.3564C56.5798 12.1185 56.8942 11.8268 57.2998 11.6172C57.7054 11.4076 58.1702 11.3027 58.6943 11.3027C59.5967 11.3027 60.2529 11.5306 60.6631 11.9863C61.0778 12.4421 61.2852 13.137 61.2852 14.0713V19H59.6787V14.3379C59.6787 13.7591 59.5671 13.3285 59.3438 13.0459C59.125 12.7588 58.7832 12.6152 58.3184 12.6152C57.694 12.6152 57.236 12.8112 56.9443 13.2031C56.6572 13.5905 56.5137 14.1875 56.5137 14.9941V19ZM67.3623 19.1367C66.4053 19.1367 65.6624 18.7926 65.1338 18.1045H65.0381C65.1019 18.7425 65.1338 19.1299 65.1338 19.2666V22.3633H63.5273V11.4395H64.8262C64.8626 11.5807 64.9378 11.918 65.0518 12.4512H65.1338C65.6351 11.6855 66.387 11.3027 67.3896 11.3027C68.333 11.3027 69.0667 11.6445 69.5908 12.3281C70.1195 13.0117 70.3838 13.971 70.3838 15.2061C70.3838 16.4411 70.1149 17.4049 69.5771 18.0977C69.0439 18.7904 68.3057 19.1367 67.3623 19.1367ZM66.9727 12.6152C66.3346 12.6152 65.8675 12.8021 65.5713 13.1758C65.2796 13.5495 65.1338 14.1465 65.1338 14.9668V15.2061C65.1338 16.1266 65.2796 16.7943 65.5713 17.209C65.863 17.6191 66.3392 17.8242 67 17.8242C67.556 17.8242 67.9844 17.5964 68.2852 17.1406C68.5859 16.6849 68.7363 16.0355 68.7363 15.1924C68.7363 14.3447 68.5859 13.7044 68.2852 13.2715C67.9889 12.834 67.5514 12.6152 66.9727 12.6152ZM75.5518 19.1367C74.376 19.1367 73.4554 18.7949 72.79 18.1113C72.1292 17.4232 71.7988 16.4775 71.7988 15.2744C71.7988 14.0394 72.1064 13.0687 72.7217 12.3623C73.3369 11.6559 74.1823 11.3027 75.2578 11.3027C76.2559 11.3027 77.0443 11.6058 77.623 12.2119C78.2018 12.818 78.4912 13.652 78.4912 14.7139V15.582H73.4531C73.4759 16.3158 73.6742 16.8809 74.0479 17.2773C74.4215 17.6693 74.9479 17.8652 75.627 17.8652C76.0736 17.8652 76.4883 17.8242 76.8711 17.7422C77.2585 17.6556 77.6732 17.5143 78.1152 17.3184V18.624C77.7233 18.8109 77.3268 18.943 76.9258 19.0205C76.5247 19.098 76.0667 19.1367 75.5518 19.1367ZM75.2578 12.5195C74.7474 12.5195 74.3372 12.6813 74.0273 13.0049C73.722 13.3285 73.5397 13.8001 73.4805 14.4199H76.9121C76.903 13.7956 76.7526 13.3239 76.4609 13.0049C76.1693 12.6813 75.7682 12.5195 75.2578 12.5195ZM85.0469 19L84.7256 17.9473H84.6709C84.3063 18.4076 83.9395 18.722 83.5703 18.8906C83.2012 19.0547 82.7272 19.1367 82.1484 19.1367C81.4056 19.1367 80.8245 18.9362 80.4053 18.5352C79.9906 18.1341 79.7832 17.5667 79.7832 16.833C79.7832 16.0537 80.0726 15.4658 80.6514 15.0693C81.2301 14.6729 82.112 14.4564 83.2969 14.4199L84.6025 14.3789V13.9756C84.6025 13.4925 84.4886 13.1325 84.2607 12.8955C84.0374 12.654 83.6888 12.5332 83.2148 12.5332C82.8275 12.5332 82.4561 12.5902 82.1006 12.7041C81.7451 12.818 81.4033 12.9525 81.0752 13.1074L80.5557 11.959C80.9658 11.7448 81.4147 11.583 81.9023 11.4736C82.39 11.3597 82.8503 11.3027 83.2832 11.3027C84.2448 11.3027 84.9694 11.5124 85.457 11.9316C85.9492 12.3509 86.1953 13.0094 86.1953 13.9072V19H85.0469ZM82.6543 17.9062C83.2376 17.9062 83.7048 17.7445 84.0557 17.4209C84.4111 17.0928 84.5889 16.6348 84.5889 16.0469V15.3906L83.6182 15.4316C82.8617 15.459 82.3102 15.5866 81.9639 15.8145C81.6221 16.0378 81.4512 16.3818 81.4512 16.8467C81.4512 17.1839 81.5514 17.446 81.752 17.6328C81.9525 17.8151 82.2533 17.9062 82.6543 17.9062ZM84.2812 10.5166C84.0898 10.5166 83.9007 10.4779 83.7139 10.4004C83.5316 10.3184 83.3516 10.2295 83.1738 10.1338C82.9961 10.0335 82.8229 9.94466 82.6543 9.86719C82.4857 9.78516 82.3239 9.74414 82.1689 9.74414C81.7998 9.74414 81.5514 10.0062 81.4238 10.5303H80.5898C80.6445 9.89681 80.82 9.41374 81.1162 9.08105C81.417 8.74837 81.7998 8.58203 82.2646 8.58203C82.4606 8.58203 82.652 8.62305 82.8389 8.70508C83.0257 8.78255 83.208 8.87142 83.3857 8.97168C83.5635 9.06738 83.7344 9.15625 83.8984 9.23828C84.0671 9.31576 84.2288 9.35449 84.3838 9.35449C84.7438 9.35449 84.9854 9.09245 85.1084 8.56836H85.9629C85.9082 9.17904 85.7327 9.65755 85.4365 10.0039C85.1403 10.3457 84.7552 10.5166 84.2812 10.5166ZM95.1436 15.2061C95.1436 16.4411 94.8268 17.4049 94.1934 18.0977C93.5599 18.7904 92.6781 19.1367 91.5479 19.1367C90.8415 19.1367 90.2171 18.9772 89.6748 18.6582C89.1325 18.3392 88.7155 17.8812 88.4238 17.2842C88.1322 16.6872 87.9863 15.9945 87.9863 15.2061C87.9863 13.9801 88.3008 13.0231 88.9297 12.335C89.5586 11.6468 90.445 11.3027 91.5889 11.3027C92.6826 11.3027 93.5485 11.6559 94.1865 12.3623C94.8245 13.0641 95.1436 14.012 95.1436 15.2061ZM89.6406 15.2061C89.6406 16.9515 90.2855 17.8242 91.5752 17.8242C92.8512 17.8242 93.4893 16.9515 93.4893 15.2061C93.4893 13.4788 92.8467 12.6152 91.5615 12.6152C90.887 12.6152 90.3971 12.8385 90.0918 13.2852C89.791 13.7318 89.6406 14.3721 89.6406 15.2061ZM103.183 19.1367C102.239 19.1367 101.503 18.7949 100.975 18.1113C100.446 17.4277 100.182 16.4684 100.182 15.2334C100.182 13.9938 100.448 13.0299 100.981 12.3418C101.519 11.6491 102.262 11.3027 103.21 11.3027C104.203 11.3027 104.96 11.6696 105.479 12.4033H105.562C105.484 11.861 105.445 11.4326 105.445 11.1182V8.36328H107.059V19H105.801L105.521 18.0088H105.445C104.93 18.7607 104.176 19.1367 103.183 19.1367ZM103.613 17.8379C104.274 17.8379 104.755 17.6533 105.056 17.2842C105.356 16.9105 105.511 16.3066 105.521 15.4727V15.2471C105.521 14.2946 105.366 13.6178 105.056 13.2168C104.746 12.8158 104.26 12.6152 103.6 12.6152C103.035 12.6152 102.599 12.8454 102.294 13.3057C101.989 13.7614 101.836 14.4131 101.836 15.2607C101.836 16.0993 101.984 16.7396 102.28 17.1816C102.576 17.6191 103.021 17.8379 103.613 17.8379ZM112.657 19.1367C111.481 19.1367 110.561 18.7949 109.896 18.1113C109.235 17.4232 108.904 16.4775 108.904 15.2744C108.904 14.0394 109.212 13.0687 109.827 12.3623C110.442 11.6559 111.288 11.3027 112.363 11.3027C113.361 11.3027 114.15 11.6058 114.729 12.2119C115.307 12.818 115.597 13.652 115.597 14.7139V15.582H110.559C110.581 16.3158 110.78 16.8809 111.153 17.2773C111.527 17.6693 112.053 17.8652 112.732 17.8652C113.179 17.8652 113.594 17.8242 113.977 17.7422C114.364 17.6556 114.779 17.5143 115.221 17.3184V18.624C114.829 18.8109 114.432 18.943 114.031 19.0205C113.63 19.098 113.172 19.1367 112.657 19.1367ZM112.363 12.5195C111.853 12.5195 111.443 12.6813 111.133 13.0049C110.827 13.3285 110.645 13.8001 110.586 14.4199H114.018C114.008 13.7956 113.858 13.3239 113.566 13.0049C113.275 12.6813 112.874 12.5195 112.363 12.5195ZM122.781 19L119.91 11.4395H121.605L123.144 15.835C123.408 16.5732 123.567 17.1702 123.622 17.626H123.677C123.718 17.2979 123.877 16.7008 124.155 15.835L125.693 11.4395H127.402L124.518 19H122.781ZM131.853 19.1367C130.677 19.1367 129.756 18.7949 129.091 18.1113C128.43 17.4232 128.1 16.4775 128.1 15.2744C128.1 14.0394 128.407 13.0687 129.022 12.3623C129.638 11.6559 130.483 11.3027 131.559 11.3027C132.557 11.3027 133.345 11.6058 133.924 12.2119C134.503 12.818 134.792 13.652 134.792 14.7139V15.582H129.754C129.777 16.3158 129.975 16.8809 130.349 17.2773C130.722 17.6693 131.249 17.8652 131.928 17.8652C132.374 17.8652 132.789 17.8242 133.172 17.7422C133.559 17.6556 133.974 17.5143 134.416 17.3184V18.624C134.024 18.8109 133.628 18.943 133.227 19.0205C132.826 19.098 132.368 19.1367 131.853 19.1367ZM131.559 12.5195C131.048 12.5195 130.638 12.6813 130.328 13.0049C130.023 13.3285 129.84 13.8001 129.781 14.4199H133.213C133.204 13.7956 133.053 13.3239 132.762 13.0049C132.47 12.6813 132.069 12.5195 131.559 12.5195ZM143.269 19H141.655V14.3516C141.655 13.7682 141.537 13.333 141.3 13.0459C141.067 12.7588 140.696 12.6152 140.186 12.6152C139.507 12.6152 139.01 12.8158 138.695 13.2168C138.381 13.6178 138.224 14.29 138.224 15.2334V19H136.617V11.4395H137.875L138.101 12.4307H138.183C138.41 12.0706 138.734 11.7926 139.153 11.5967C139.573 11.4007 140.037 11.3027 140.548 11.3027C142.362 11.3027 143.269 12.2256 143.269 14.0713V19ZM148.054 19.1367C147.11 19.1367 146.374 18.7949 145.846 18.1113C145.317 17.4277 145.053 16.4684 145.053 15.2334C145.053 13.9938 145.319 13.0299 145.853 12.3418C146.39 11.6491 147.133 11.3027 148.081 11.3027C149.075 11.3027 149.831 11.6696 150.351 12.4033H150.433C150.355 11.861 150.316 11.4326 150.316 11.1182V8.36328H151.93V19H150.672L150.392 18.0088H150.316C149.801 18.7607 149.047 19.1367 148.054 19.1367ZM148.484 17.8379C149.145 17.8379 149.626 17.6533 149.927 17.2842C150.228 16.9105 150.382 16.3066 150.392 15.4727V15.2471C150.392 14.2946 150.237 13.6178 149.927 13.2168C149.617 12.8158 149.132 12.6152 148.471 12.6152C147.906 12.6152 147.47 12.8454 147.165 13.3057C146.86 13.7614 146.707 14.4131 146.707 15.2607C146.707 16.0993 146.855 16.7396 147.151 17.1816C147.448 17.6191 147.892 17.8379 148.484 17.8379ZM158.957 19L158.636 17.9473H158.581C158.216 18.4076 157.85 18.722 157.48 18.8906C157.111 19.0547 156.637 19.1367 156.059 19.1367C155.316 19.1367 154.735 18.9362 154.315 18.5352C153.901 18.1341 153.693 17.5667 153.693 16.833C153.693 16.0537 153.983 15.4658 154.562 15.0693C155.14 14.6729 156.022 14.4564 157.207 14.4199L158.513 14.3789V13.9756C158.513 13.4925 158.399 13.1325 158.171 12.8955C157.948 12.654 157.599 12.5332 157.125 12.5332C156.738 12.5332 156.366 12.5902 156.011 12.7041C155.655 12.818 155.313 12.9525 154.985 13.1074L154.466 11.959C154.876 11.7448 155.325 11.583 155.812 11.4736C156.3 11.3597 156.76 11.3027 157.193 11.3027C158.155 11.3027 158.88 11.5124 159.367 11.9316C159.859 12.3509 160.105 13.0094 160.105 13.9072V19H158.957ZM156.564 17.9062C157.148 17.9062 157.615 17.7445 157.966 17.4209C158.321 17.0928 158.499 16.6348 158.499 16.0469V15.3906L157.528 15.4316C156.772 15.459 156.22 15.5866 155.874 15.8145C155.532 16.0378 155.361 16.3818 155.361 16.8467C155.361 17.1839 155.462 17.446 155.662 17.6328C155.863 17.8151 156.163 17.9062 156.564 17.9062ZM167.427 16.8467C167.427 17.585 167.158 18.1523 166.62 18.5488C166.082 18.9408 165.312 19.1367 164.31 19.1367C163.302 19.1367 162.493 18.984 161.883 18.6787V17.291C162.771 17.7012 163.599 17.9062 164.364 17.9062C165.353 17.9062 165.848 17.6077 165.848 17.0107C165.848 16.8193 165.793 16.6598 165.684 16.5322C165.574 16.4046 165.394 16.2725 165.144 16.1357C164.893 15.999 164.544 15.8441 164.098 15.6709C163.227 15.3337 162.637 14.9964 162.327 14.6592C162.022 14.3219 161.869 13.8844 161.869 13.3467C161.869 12.6995 162.129 12.1982 162.648 11.8428C163.173 11.4827 163.883 11.3027 164.781 11.3027C165.67 11.3027 166.511 11.4827 167.304 11.8428L166.784 13.0527C165.968 12.7155 165.283 12.5469 164.727 12.5469C163.879 12.5469 163.455 12.7884 163.455 13.2715C163.455 13.5085 163.564 13.709 163.783 13.873C164.007 14.0371 164.49 14.2627 165.232 14.5498C165.857 14.7913 166.31 15.0124 166.593 15.2129C166.875 15.4134 167.085 15.6458 167.222 15.9102C167.358 16.1699 167.427 16.4821 167.427 16.8467Z" fill="white"/>
<path d="M37.5713 10.2637C36.6325 10.2637 35.8942 10.5964 35.3564 11.2617C34.8187 11.9271 34.5498 12.8454 34.5498 14.0166C34.5498 15.2425 34.8073 16.1699 35.3223 16.7988C35.8418 17.4277 36.5915 17.7422 37.5713 17.7422C37.9951 17.7422 38.4053 17.7012 38.8018 17.6191C39.1982 17.5326 39.6107 17.4232 40.0391 17.291V18.6924C39.2552 18.9886 38.3665 19.1367 37.373 19.1367C35.9102 19.1367 34.7868 18.6947 34.0029 17.8105C33.2191 16.9219 32.8271 15.6527 32.8271 14.0029C32.8271 12.9639 33.0163 12.0547 33.3945 11.2754C33.7773 10.4961 34.3288 9.89909 35.0488 9.48438C35.7689 9.06966 36.6143 8.8623 37.585 8.8623C38.6058 8.8623 39.5492 9.0765 40.415 9.50488L39.8271 10.8652C39.4899 10.7057 39.1322 10.5667 38.7539 10.4482C38.3802 10.3252 37.986 10.2637 37.5713 10.2637ZM46.752 19L46.4307 17.9473H46.376C46.0114 18.4076 45.6445 18.722 45.2754 18.8906C44.9062 19.0547 44.4323 19.1367 43.8535 19.1367C43.1107 19.1367 42.5296 18.9362 42.1104 18.5352C41.6956 18.1341 41.4883 17.5667 41.4883 16.833C41.4883 16.0537 41.7777 15.4658 42.3564 15.0693C42.9352 14.6729 43.8171 14.4564 45.002 14.4199L46.3076 14.3789V13.9756C46.3076 13.4925 46.1937 13.1325 45.9658 12.8955C45.7425 12.654 45.3939 12.5332 44.9199 12.5332C44.5326 12.5332 44.1611 12.5902 43.8057 12.7041C43.4502 12.818 43.1084 12.9525 42.7803 13.1074L42.2607 11.959C42.6709 11.7448 43.1198 11.583 43.6074 11.4736C44.0951 11.3597 44.5553 11.3027 44.9883 11.3027C45.9499 11.3027 46.6745 11.5124 47.1621 11.9316C47.6543 12.3509 47.9004 13.0094 47.9004 13.9072V19H46.752ZM44.3594 17.9062C44.9427 17.9062 45.4098 17.7445 45.7607 17.4209C46.1162 17.0928 46.2939 16.6348 46.2939 16.0469V15.3906L45.3232 15.4316C44.5667 15.459 44.0153 15.5866 43.6689 15.8145C43.3271 16.0378 43.1562 16.3818 43.1562 16.8467C43.1562 17.1839 43.2565 17.446 43.457 17.6328C43.6576 17.8151 43.9583 17.9062 44.3594 17.9062ZM56.5137 19H54.9004V14.3379C54.9004 13.7591 54.791 13.3285 54.5723 13.0459C54.3535 12.7588 54.0117 12.6152 53.5469 12.6152C52.9271 12.6152 52.4714 12.818 52.1797 13.2236C51.8926 13.6247 51.749 14.2946 51.749 15.2334V19H50.1426V11.4395H51.4004L51.626 12.4307H51.708C51.9176 12.0706 52.2207 11.7926 52.6172 11.5967C53.0182 11.4007 53.458 11.3027 53.9365 11.3027C55.0986 11.3027 55.8688 11.6992 56.2471 12.4922H56.3564C56.5798 12.1185 56.8942 11.8268 57.2998 11.6172C57.7054 11.4076 58.1702 11.3027 58.6943 11.3027C59.5967 11.3027 60.2529 11.5306 60.6631 11.9863C61.0778 12.4421 61.2852 13.137 61.2852 14.0713V19H59.6787V14.3379C59.6787 13.7591 59.5671 13.3285 59.3438 13.0459C59.125 12.7588 58.7832 12.6152 58.3184 12.6152C57.694 12.6152 57.236 12.8112 56.9443 13.2031C56.6572 13.5905 56.5137 14.1875 56.5137 14.9941V19ZM67.3623 19.1367C66.4053 19.1367 65.6624 18.7926 65.1338 18.1045H65.0381C65.1019 18.7425 65.1338 19.1299 65.1338 19.2666V22.3633H63.5273V11.4395H64.8262C64.8626 11.5807 64.9378 11.918 65.0518 12.4512H65.1338C65.6351 11.6855 66.387 11.3027 67.3896 11.3027C68.333 11.3027 69.0667 11.6445 69.5908 12.3281C70.1195 13.0117 70.3838 13.971 70.3838 15.2061C70.3838 16.4411 70.1149 17.4049 69.5771 18.0977C69.0439 18.7904 68.3057 19.1367 67.3623 19.1367ZM66.9727 12.6152C66.3346 12.6152 65.8675 12.8021 65.5713 13.1758C65.2796 13.5495 65.1338 14.1465 65.1338 14.9668V15.2061C65.1338 16.1266 65.2796 16.7943 65.5713 17.209C65.863 17.6191 66.3392 17.8242 67 17.8242C67.556 17.8242 67.9844 17.5964 68.2852 17.1406C68.5859 16.6849 68.7363 16.0355 68.7363 15.1924C68.7363 14.3447 68.5859 13.7044 68.2852 13.2715C67.9889 12.834 67.5514 12.6152 66.9727 12.6152ZM75.5518 19.1367C74.376 19.1367 73.4554 18.7949 72.79 18.1113C72.1292 17.4232 71.7988 16.4775 71.7988 15.2744C71.7988 14.0394 72.1064 13.0687 72.7217 12.3623C73.3369 11.6559 74.1823 11.3027 75.2578 11.3027C76.2559 11.3027 77.0443 11.6058 77.623 12.2119C78.2018 12.818 78.4912 13.652 78.4912 14.7139V15.582H73.4531C73.4759 16.3158 73.6742 16.8809 74.0479 17.2773C74.4215 17.6693 74.9479 17.8652 75.627 17.8652C76.0736 17.8652 76.4883 17.8242 76.8711 17.7422C77.2585 17.6556 77.6732 17.5143 78.1152 17.3184V18.624C77.7233 18.8109 77.3268 18.943 76.9258 19.0205C76.5247 19.098 76.0667 19.1367 75.5518 19.1367ZM75.2578 12.5195C74.7474 12.5195 74.3372 12.6813 74.0273 13.0049C73.722 13.3285 73.5397 13.8001 73.4805 14.4199H76.9121C76.903 13.7956 76.7526 13.3239 76.4609 13.0049C76.1693 12.6813 75.7682 12.5195 75.2578 12.5195ZM85.0469 19L84.7256 17.9473H84.6709C84.3063 18.4076 83.9395 18.722 83.5703 18.8906C83.2012 19.0547 82.7272 19.1367 82.1484 19.1367C81.4056 19.1367 80.8245 18.9362 80.4053 18.5352C79.9906 18.1341 79.7832 17.5667 79.7832 16.833C79.7832 16.0537 80.0726 15.4658 80.6514 15.0693C81.2301 14.6729 82.112 14.4564 83.2969 14.4199L84.6025 14.3789V13.9756C84.6025 13.4925 84.4886 13.1325 84.2607 12.8955C84.0374 12.654 83.6888 12.5332 83.2148 12.5332C82.8275 12.5332 82.4561 12.5902 82.1006 12.7041C81.7451 12.818 81.4033 12.9525 81.0752 13.1074L80.5557 11.959C80.9658 11.7448 81.4147 11.583 81.9023 11.4736C82.39 11.3597 82.8503 11.3027 83.2832 11.3027C84.2448 11.3027 84.9694 11.5124 85.457 11.9316C85.9492 12.3509 86.1953 13.0094 86.1953 13.9072V19H85.0469ZM82.6543 17.9062C83.2376 17.9062 83.7048 17.7445 84.0557 17.4209C84.4111 17.0928 84.5889 16.6348 84.5889 16.0469V15.3906L83.6182 15.4316C82.8617 15.459 82.3102 15.5866 81.9639 15.8145C81.6221 16.0378 81.4512 16.3818 81.4512 16.8467C81.4512 17.1839 81.5514 17.446 81.752 17.6328C81.9525 17.8151 82.2533 17.9062 82.6543 17.9062ZM84.2812 10.5166C84.0898 10.5166 83.9007 10.4779 83.7139 10.4004C83.5316 10.3184 83.3516 10.2295 83.1738 10.1338C82.9961 10.0335 82.8229 9.94466 82.6543 9.86719C82.4857 9.78516 82.3239 9.74414 82.1689 9.74414C81.7998 9.74414 81.5514 10.0062 81.4238 10.5303H80.5898C80.6445 9.89681 80.82 9.41374 81.1162 9.08105C81.417 8.74837 81.7998 8.58203 82.2646 8.58203C82.4606 8.58203 82.652 8.62305 82.8389 8.70508C83.0257 8.78255 83.208 8.87142 83.3857 8.97168C83.5635 9.06738 83.7344 9.15625 83.8984 9.23828C84.0671 9.31576 84.2288 9.35449 84.3838 9.35449C84.7438 9.35449 84.9854 9.09245 85.1084 8.56836H85.9629C85.9082 9.17904 85.7327 9.65755 85.4365 10.0039C85.1403 10.3457 84.7552 10.5166 84.2812 10.5166ZM95.1436 15.2061C95.1436 16.4411 94.8268 17.4049 94.1934 18.0977C93.5599 18.7904 92.6781 19.1367 91.5479 19.1367C90.8415 19.1367 90.2171 18.9772 89.6748 18.6582C89.1325 18.3392 88.7155 17.8812 88.4238 17.2842C88.1322 16.6872 87.9863 15.9945 87.9863 15.2061C87.9863 13.9801 88.3008 13.0231 88.9297 12.335C89.5586 11.6468 90.445 11.3027 91.5889 11.3027C92.6826 11.3027 93.5485 11.6559 94.1865 12.3623C94.8245 13.0641 95.1436 14.012 95.1436 15.2061ZM89.6406 15.2061C89.6406 16.9515 90.2855 17.8242 91.5752 17.8242C92.8512 17.8242 93.4893 16.9515 93.4893 15.2061C93.4893 13.4788 92.8467 12.6152 91.5615 12.6152C90.887 12.6152 90.3971 12.8385 90.0918 13.2852C89.791 13.7318 89.6406 14.3721 89.6406 15.2061ZM103.183 19.1367C102.239 19.1367 101.503 18.7949 100.975 18.1113C100.446 17.4277 100.182 16.4684 100.182 15.2334C100.182 13.9938 100.448 13.0299 100.981 12.3418C101.519 11.6491 102.262 11.3027 103.21 11.3027C104.203 11.3027 104.96 11.6696 105.479 12.4033H105.562C105.484 11.861 105.445 11.4326 105.445 11.1182V8.36328H107.059V19H105.801L105.521 18.0088H105.445C104.93 18.7607 104.176 19.1367 103.183 19.1367ZM103.613 17.8379C104.274 17.8379 104.755 17.6533 105.056 17.2842C105.356 16.9105 105.511 16.3066 105.521 15.4727V15.2471C105.521 14.2946 105.366 13.6178 105.056 13.2168C104.746 12.8158 104.26 12.6152 103.6 12.6152C103.035 12.6152 102.599 12.8454 102.294 13.3057C101.989 13.7614 101.836 14.4131 101.836 15.2607C101.836 16.0993 101.984 16.7396 102.28 17.1816C102.576 17.6191 103.021 17.8379 103.613 17.8379ZM112.657 19.1367C111.481 19.1367 110.561 18.7949 109.896 18.1113C109.235 17.4232 108.904 16.4775 108.904 15.2744C108.904 14.0394 109.212 13.0687 109.827 12.3623C110.442 11.6559 111.288 11.3027 112.363 11.3027C113.361 11.3027 114.15 11.6058 114.729 12.2119C115.307 12.818 115.597 13.652 115.597 14.7139V15.582H110.559C110.581 16.3158 110.78 16.8809 111.153 17.2773C111.527 17.6693 112.053 17.8652 112.732 17.8652C113.179 17.8652 113.594 17.8242 113.977 17.7422C114.364 17.6556 114.779 17.5143 115.221 17.3184V18.624C114.829 18.8109 114.432 18.943 114.031 19.0205C113.63 19.098 113.172 19.1367 112.657 19.1367ZM112.363 12.5195C111.853 12.5195 111.443 12.6813 111.133 13.0049C110.827 13.3285 110.645 13.8001 110.586 14.4199H114.018C114.008 13.7956 113.858 13.3239 113.566 13.0049C113.275 12.6813 112.874 12.5195 112.363 12.5195ZM122.781 19L119.91 11.4395H121.605L123.144 15.835C123.408 16.5732 123.567 17.1702 123.622 17.626H123.677C123.718 17.2979 123.877 16.7008 124.155 15.835L125.693 11.4395H127.402L124.518 19H122.781ZM131.853 19.1367C130.677 19.1367 129.756 18.7949 129.091 18.1113C128.43 17.4232 128.1 16.4775 128.1 15.2744C128.1 14.0394 128.407 13.0687 129.022 12.3623C129.638 11.6559 130.483 11.3027 131.559 11.3027C132.557 11.3027 133.345 11.6058 133.924 12.2119C134.503 12.818 134.792 13.652 134.792 14.7139V15.582H129.754C129.777 16.3158 129.975 16.8809 130.349 17.2773C130.722 17.6693 131.249 17.8652 131.928 17.8652C132.374 17.8652 132.789 17.8242 133.172 17.7422C133.559 17.6556 133.974 17.5143 134.416 17.3184V18.624C134.024 18.8109 133.628 18.943 133.227 19.0205C132.826 19.098 132.368 19.1367 131.853 19.1367ZM131.559 12.5195C131.048 12.5195 130.638 12.6813 130.328 13.0049C130.023 13.3285 129.84 13.8001 129.781 14.4199H133.213C133.204 13.7956 133.053 13.3239 132.762 13.0049C132.47 12.6813 132.069 12.5195 131.559 12.5195ZM143.269 19H141.655V14.3516C141.655 13.7682 141.537 13.333 141.3 13.0459C141.067 12.7588 140.696 12.6152 140.186 12.6152C139.507 12.6152 139.01 12.8158 138.695 13.2168C138.381 13.6178 138.224 14.29 138.224 15.2334V19H136.617V11.4395H137.875L138.101 12.4307H138.183C138.41 12.0706 138.734 11.7926 139.153 11.5967C139.573 11.4007 140.037 11.3027 140.548 11.3027C142.362 11.3027 143.269 12.2256 143.269 14.0713V19ZM148.054 19.1367C147.11 19.1367 146.374 18.7949 145.846 18.1113C145.317 17.4277 145.053 16.4684 145.053 15.2334C145.053 13.9938 145.319 13.0299 145.853 12.3418C146.39 11.6491 147.133 11.3027 148.081 11.3027C149.075 11.3027 149.831 11.6696 150.351 12.4033H150.433C150.355 11.861 150.316 11.4326 150.316 11.1182V8.36328H151.93V19H150.672L150.392 18.0088H150.316C149.801 18.7607 149.047 19.1367 148.054 19.1367ZM148.484 17.8379C149.145 17.8379 149.626 17.6533 149.927 17.2842C150.228 16.9105 150.382 16.3066 150.392 15.4727V15.2471C150.392 14.2946 150.237 13.6178 149.927 13.2168C149.617 12.8158 149.132 12.6152 148.471 12.6152C147.906 12.6152 147.47 12.8454 147.165 13.3057C146.86 13.7614 146.707 14.4131 146.707 15.2607C146.707 16.0993 146.855 16.7396 147.151 17.1816C147.448 17.6191 147.892 17.8379 148.484 17.8379ZM158.957 19L158.636 17.9473H158.581C158.216 18.4076 157.85 18.722 157.48 18.8906C157.111 19.0547 156.637 19.1367 156.059 19.1367C155.316 19.1367 154.735 18.9362 154.315 18.5352C153.901 18.1341 153.693 17.5667 153.693 16.833C153.693 16.0537 153.983 15.4658 154.562 15.0693C155.14 14.6729 156.022 14.4564 157.207 14.4199L158.513 14.3789V13.9756C158.513 13.4925 158.399 13.1325 158.171 12.8955C157.948 12.654 157.599 12.5332 157.125 12.5332C156.738 12.5332 156.366 12.5902 156.011 12.7041C155.655 12.818 155.313 12.9525 154.985 13.1074L154.466 11.959C154.876 11.7448 155.325 11.583 155.812 11.4736C156.3 11.3597 156.76 11.3027 157.193 11.3027C158.155 11.3027 158.88 11.5124 159.367 11.9316C159.859 12.3509 160.105 13.0094 160.105 13.9072V19H158.957ZM156.564 17.9062C157.148 17.9062 157.615 17.7445 157.966 17.4209C158.321 17.0928 158.499 16.6348 158.499 16.0469V15.3906L157.528 15.4316C156.772 15.459 156.22 15.5866 155.874 15.8145C155.532 16.0378 155.361 16.3818 155.361 16.8467C155.361 17.1839 155.462 17.446 155.662 17.6328C155.863 17.8151 156.163 17.9062 156.564 17.9062ZM167.427 16.8467C167.427 17.585 167.158 18.1523 166.62 18.5488C166.082 18.9408 165.312 19.1367 164.31 19.1367C163.302 19.1367 162.493 18.984 161.883 18.6787V17.291C162.771 17.7012 163.599 17.9062 164.364 17.9062C165.353 17.9062 165.848 17.6077 165.848 17.0107C165.848 16.8193 165.793 16.6598 165.684 16.5322C165.574 16.4046 165.394 16.2725 165.144 16.1357C164.893 15.999 164.544 15.8441 164.098 15.6709C163.227 15.3337 162.637 14.9964 162.327 14.6592C162.022 14.3219 161.869 13.8844 161.869 13.3467C161.869 12.6995 162.129 12.1982 162.648 11.8428C163.173 11.4827 163.883 11.3027 164.781 11.3027C165.67 11.3027 166.511 11.4827 167.304 11.8428L166.784 13.0527C165.968 12.7155 165.283 12.5469 164.727 12.5469C163.879 12.5469 163.455 12.7884 163.455 13.2715C163.455 13.5085 163.564 13.709 163.783 13.873C164.007 14.0371 164.49 14.2627 165.232 14.5498C165.857 14.7913 166.31 15.0124 166.593 15.2129C166.875 15.4134 167.085 15.6458 167.222 15.9102C167.358 16.1699 167.427 16.4821 167.427 16.8467Z" fill="#F9F9F9"/>
</svg>
