<svg width="28" height="28" viewBox="0 0 28 28" fill="none" xmlns="http://www.w3.org/2000/svg">
<path opacity="0.95" d="M0 4C0 1.79086 1.79086 0 4 0H28V28H4C1.79086 28 0 26.2091 0 24V4Z" fill="#F49F1F"/>
<path d="M19.8333 8.16667H18.1667V7.33333C18.1667 6.875 17.7917 6.5 17.3333 6.5H10.6667C10.2083 6.5 9.83333 6.875 9.83333 7.33333V8.16667H8.16667C7.25 8.16667 6.5 8.91667 6.5 9.83333V10.6667C6.5 12.7917 8.1 14.525 10.1583 14.7833C10.6833 16.0333 11.8083 16.975 13.1667 17.25V19.8333H10.6667C10.2083 19.8333 9.83333 20.2083 9.83333 20.6667C9.83333 21.125 10.2083 21.5 10.6667 21.5H17.3333C17.7917 21.5 18.1667 21.125 18.1667 20.6667C18.1667 20.2083 17.7917 19.8333 17.3333 19.8333H14.8333V17.25C16.1917 16.975 17.3167 16.0333 17.8417 14.7833C19.9 14.525 21.5 12.7917 21.5 10.6667V9.83333C21.5 8.91667 20.75 8.16667 19.8333 8.16667ZM9.83333 13.0167C8.86667 12.6667 8.16667 11.75 8.16667 10.6667V9.83333H9.83333V13.0167ZM19.8333 10.6667C19.8333 11.75 19.1333 12.6667 18.1667 13.0167V9.83333H19.8333V10.6667Z" fill="#F9F9F9"/>
</svg>
