<svg width="117" height="28" viewBox="0 0 117 28" fill="none" xmlns="http://www.w3.org/2000/svg">
<path opacity="0.95" d="M0 4C0 1.79086 1.79086 0 4 0H117V28H4C1.79086 28 0 26.2091 0 24V4Z" fill="#A452E4"/>
<path d="M24.6666 10.6666H22.1666V7.33325H10.4999C9.58325 7.33325 8.83325 8.08325 8.83325 8.99992V18.1666H10.4999C10.4999 19.5499 11.6166 20.6666 12.9999 20.6666C14.3833 20.6666 15.4999 19.5499 15.4999 18.1666H20.4999C20.4999 19.5499 21.6166 20.6666 22.9999 20.6666C24.3833 20.6666 25.4999 19.5499 25.4999 18.1666H27.1666V13.9999L24.6666 10.6666ZM12.9999 19.4166C12.3083 19.4166 11.7499 18.8583 11.7499 18.1666C11.7499 17.4749 12.3083 16.9166 12.9999 16.9166C13.6916 16.9166 14.2499 17.4749 14.2499 18.1666C14.2499 18.8583 13.6916 19.4166 12.9999 19.4166ZM24.2499 11.9166L25.8832 13.9999H22.1666V11.9166H24.2499ZM22.9999 19.4166C22.3083 19.4166 21.7499 18.8583 21.7499 18.1666C21.7499 17.4749 22.3083 16.9166 22.9999 16.9166C23.6916 16.9166 24.2499 17.4749 24.2499 18.1666C24.2499 18.8583 23.6916 19.4166 22.9999 19.4166Z" fill="#F9F9F9"/>
<path d="M34.9395 20H33.3193V10.0059H38.959V11.3867H34.9395V14.5107H38.7061V15.8984H34.9395V20ZM44.4346 12.3027C44.7581 12.3027 45.0247 12.3255 45.2344 12.3711L45.0771 13.8682C44.8493 13.8135 44.6123 13.7861 44.3662 13.7861C43.7236 13.7861 43.2018 13.9958 42.8008 14.415C42.4043 14.8343 42.2061 15.3789 42.2061 16.0488V20H40.5996V12.4395H41.8574L42.0693 13.7725H42.1514C42.402 13.3213 42.7279 12.9635 43.1289 12.6992C43.5345 12.4349 43.9697 12.3027 44.4346 12.3027ZM49.9443 20.1367C48.7686 20.1367 47.848 19.7949 47.1826 19.1113C46.5218 18.4232 46.1914 17.4775 46.1914 16.2744C46.1914 15.0394 46.499 14.0687 47.1143 13.3623C47.7295 12.6559 48.5749 12.3027 49.6504 12.3027C50.6484 12.3027 51.4368 12.6058 52.0156 13.2119C52.5944 13.818 52.8838 14.652 52.8838 15.7139V16.582H47.8457C47.8685 17.3158 48.0667 17.8809 48.4404 18.2773C48.8141 18.6693 49.3405 18.8652 50.0195 18.8652C50.4661 18.8652 50.8809 18.8242 51.2637 18.7422C51.651 18.6556 52.0658 18.5143 52.5078 18.3184V19.624C52.1159 19.8109 51.7194 19.943 51.3184 20.0205C50.9173 20.098 50.4593 20.1367 49.9443 20.1367ZM49.6504 13.5195C49.14 13.5195 48.7298 13.6813 48.4199 14.0049C48.1146 14.3285 47.9323 14.8001 47.873 15.4199H51.3047C51.2956 14.7956 51.1452 14.3239 50.8535 14.0049C50.5618 13.6813 50.1608 13.5195 49.6504 13.5195ZM57.5254 18.8379C57.9173 18.8379 58.3092 18.7764 58.7012 18.6533V19.8633C58.5234 19.9408 58.2933 20.0046 58.0107 20.0547C57.7327 20.1094 57.4434 20.1367 57.1426 20.1367C55.6204 20.1367 54.8594 19.3346 54.8594 17.7305V13.6562H53.8271V12.9453L54.9346 12.3574L55.4814 10.7578H56.4727V12.4395H58.626V13.6562H56.4727V17.7031C56.4727 18.0905 56.5684 18.3776 56.7598 18.5645C56.9557 18.7467 57.2109 18.8379 57.5254 18.8379ZM63.5205 20.1367C62.3447 20.1367 61.4242 19.7949 60.7588 19.1113C60.098 18.4232 59.7676 17.4775 59.7676 16.2744C59.7676 15.0394 60.0752 14.0687 60.6904 13.3623C61.3057 12.6559 62.151 12.3027 63.2266 12.3027C64.2246 12.3027 65.013 12.6058 65.5918 13.2119C66.1706 13.818 66.46 14.652 66.46 15.7139V16.582H61.4219C61.4447 17.3158 61.6429 17.8809 62.0166 18.2773C62.3903 18.6693 62.9167 18.8652 63.5957 18.8652C64.0423 18.8652 64.457 18.8242 64.8398 18.7422C65.2272 18.6556 65.6419 18.5143 66.084 18.3184V19.624C65.6921 19.8109 65.2956 19.943 64.8945 20.0205C64.4935 20.098 64.0355 20.1367 63.5205 20.1367ZM63.2266 13.5195C62.7161 13.5195 62.306 13.6813 61.9961 14.0049C61.6908 14.3285 61.5085 14.8001 61.4492 15.4199H64.8809C64.8717 14.7956 64.7214 14.3239 64.4297 14.0049C64.138 13.6813 63.737 13.5195 63.2266 13.5195ZM78.3066 12.4395V13.3213L77.0146 13.5605C77.1331 13.7201 77.2311 13.916 77.3086 14.1484C77.3861 14.3809 77.4248 14.627 77.4248 14.8867C77.4248 15.666 77.1559 16.279 76.6182 16.7256C76.0804 17.1722 75.3398 17.3955 74.3965 17.3955C74.1549 17.3955 73.9362 17.3773 73.7402 17.3408C73.3939 17.555 73.2207 17.8057 73.2207 18.0928C73.2207 18.266 73.3005 18.3958 73.46 18.4824C73.624 18.569 73.9225 18.6123 74.3555 18.6123H75.6748C76.5088 18.6123 77.1423 18.79 77.5752 19.1455C78.0081 19.501 78.2246 20.0137 78.2246 20.6836C78.2246 21.5404 77.8714 22.2012 77.165 22.666C76.4587 23.1309 75.4378 23.3633 74.1025 23.3633C73.0726 23.3633 72.2865 23.181 71.7441 22.8164C71.2018 22.4518 70.9307 21.9323 70.9307 21.2578C70.9307 20.793 71.0765 20.401 71.3682 20.082C71.6644 19.7676 72.0768 19.5488 72.6055 19.4258C72.3913 19.3346 72.2135 19.1888 72.0723 18.9883C71.9355 18.7832 71.8672 18.569 71.8672 18.3457C71.8672 18.0632 71.9469 17.8239 72.1064 17.6279C72.266 17.432 72.5029 17.2383 72.8174 17.0469C72.4255 16.8783 72.1064 16.6048 71.8604 16.2266C71.6188 15.8438 71.498 15.3971 71.498 14.8867C71.498 14.0664 71.7555 13.4307 72.2705 12.9795C72.79 12.5283 73.5283 12.3027 74.4854 12.3027C74.6995 12.3027 74.9229 12.3187 75.1553 12.3506C75.3923 12.3779 75.57 12.4076 75.6885 12.4395H78.3066ZM72.3662 21.1758C72.3662 21.5221 72.5212 21.7887 72.8311 21.9756C73.1455 22.1624 73.5853 22.2559 74.1504 22.2559C75.0254 22.2559 75.6771 22.1305 76.1055 21.8799C76.5339 21.6292 76.748 21.2965 76.748 20.8818C76.748 20.5537 76.6296 20.319 76.3926 20.1777C76.1602 20.041 75.7249 19.9727 75.0869 19.9727H73.8701C73.4098 19.9727 73.043 20.0798 72.7695 20.2939C72.5007 20.5127 72.3662 20.8066 72.3662 21.1758ZM73.0566 14.8867C73.0566 15.3607 73.1774 15.7253 73.4189 15.9805C73.665 16.2357 74.016 16.3633 74.4717 16.3633C75.4014 16.3633 75.8662 15.8665 75.8662 14.873C75.8662 14.3809 75.75 14.0026 75.5176 13.7383C75.2897 13.4694 74.9411 13.335 74.4717 13.335C74.0068 13.335 73.6536 13.4671 73.4121 13.7314C73.1751 13.9958 73.0566 14.3809 73.0566 14.8867ZM83.5498 12.3027C83.8734 12.3027 84.14 12.3255 84.3496 12.3711L84.1924 13.8682C83.9645 13.8135 83.7275 13.7861 83.4814 13.7861C82.8389 13.7861 82.3171 13.9958 81.916 14.415C81.5195 14.8343 81.3213 15.3789 81.3213 16.0488V20H79.7148V12.4395H80.9727L81.1846 13.7725H81.2666C81.5173 13.3213 81.8431 12.9635 82.2441 12.6992C82.6497 12.4349 83.085 12.3027 83.5498 12.3027ZM90.4883 20L90.167 18.9473H90.1123C89.7477 19.4076 89.3809 19.722 89.0117 19.8906C88.6426 20.0547 88.1686 20.1367 87.5898 20.1367C86.847 20.1367 86.266 19.9362 85.8467 19.5352C85.432 19.1341 85.2246 18.5667 85.2246 17.833C85.2246 17.0537 85.514 16.4658 86.0928 16.0693C86.6715 15.6729 87.5534 15.4564 88.7383 15.4199L90.0439 15.3789V14.9756C90.0439 14.4925 89.93 14.1325 89.7021 13.8955C89.4788 13.654 89.1302 13.5332 88.6562 13.5332C88.2689 13.5332 87.8975 13.5902 87.542 13.7041C87.1865 13.818 86.8447 13.9525 86.5166 14.1074L85.9971 12.959C86.4072 12.7448 86.8561 12.583 87.3438 12.4736C87.8314 12.3597 88.2917 12.3027 88.7246 12.3027C89.6862 12.3027 90.4108 12.5124 90.8984 12.9316C91.3906 13.3509 91.6367 14.0094 91.6367 14.9072V20H90.4883ZM88.0957 18.9062C88.679 18.9062 89.1462 18.7445 89.4971 18.4209C89.8525 18.0928 90.0303 17.6348 90.0303 17.0469V16.3906L89.0596 16.4316C88.3031 16.459 87.7516 16.5866 87.4053 16.8145C87.0635 17.0378 86.8926 17.3818 86.8926 17.8467C86.8926 18.1839 86.9928 18.446 87.1934 18.6328C87.3939 18.8151 87.6947 18.9062 88.0957 18.9062ZM87.6035 11.5166V11.3457C87.8633 11.0267 88.1299 10.6712 88.4033 10.2793C88.6813 9.88737 88.9001 9.55241 89.0596 9.27441H90.9258V9.41797C90.6888 9.69596 90.3333 10.056 89.8594 10.498C89.39 10.9355 88.9935 11.2751 88.6699 11.5166H87.6035ZM96.6953 18.8379C97.0872 18.8379 97.4792 18.7764 97.8711 18.6533V19.8633C97.6934 19.9408 97.4632 20.0046 97.1807 20.0547C96.9027 20.1094 96.6133 20.1367 96.3125 20.1367C94.7904 20.1367 94.0293 19.3346 94.0293 17.7305V13.6562H92.9971V12.9453L94.1045 12.3574L94.6514 10.7578H95.6426V12.4395H97.7959V13.6562H95.6426V17.7031C95.6426 18.0905 95.7383 18.3776 95.9297 18.5645C96.1257 18.7467 96.3809 18.8379 96.6953 18.8379ZM100.995 20H99.3887V12.4395H100.995V20ZM99.293 10.4365C99.293 10.1494 99.3704 9.92839 99.5254 9.77344C99.6849 9.61849 99.9105 9.54102 100.202 9.54102C100.485 9.54102 100.703 9.61849 100.858 9.77344C101.018 9.92839 101.098 10.1494 101.098 10.4365C101.098 10.71 101.018 10.9264 100.858 11.0859C100.703 11.2409 100.485 11.3184 100.202 11.3184C99.9105 11.3184 99.6849 11.2409 99.5254 11.0859C99.3704 10.9264 99.293 10.71 99.293 10.4365ZM108.378 17.8467C108.378 18.585 108.109 19.1523 107.571 19.5488C107.034 19.9408 106.263 20.1367 105.261 20.1367C104.254 20.1367 103.445 19.984 102.834 19.6787V18.291C103.723 18.7012 104.55 18.9062 105.315 18.9062C106.304 18.9062 106.799 18.6077 106.799 18.0107C106.799 17.8193 106.744 17.6598 106.635 17.5322C106.525 17.4046 106.345 17.2725 106.095 17.1357C105.844 16.999 105.495 16.8441 105.049 16.6709C104.178 16.3337 103.588 15.9964 103.278 15.6592C102.973 15.3219 102.82 14.8844 102.82 14.3467C102.82 13.6995 103.08 13.1982 103.6 12.8428C104.124 12.4827 104.835 12.3027 105.732 12.3027C106.621 12.3027 107.462 12.4827 108.255 12.8428L107.735 14.0527C106.92 13.7155 106.234 13.5469 105.678 13.5469C104.83 13.5469 104.406 13.7884 104.406 14.2715C104.406 14.5085 104.516 14.709 104.734 14.873C104.958 15.0371 105.441 15.2627 106.184 15.5498C106.808 15.7913 107.261 16.0124 107.544 16.2129C107.826 16.4134 108.036 16.6458 108.173 16.9102C108.31 17.1699 108.378 17.4821 108.378 17.8467Z" fill="#F9F9F9"/>
</svg>
