<svg width="28" height="28" viewBox="0 0 28 28" fill="none" xmlns="http://www.w3.org/2000/svg">
<path opacity="0.95" d="M0 4C0 1.79086 1.79086 0 4 0H28V28H4C1.79086 28 0 26.2091 0 24V4Z" fill="#A452E4"/>
<path d="M20.6666 10.6666H18.1666V7.33325H6.49992C5.58325 7.33325 4.83325 8.08325 4.83325 8.99992V18.1666H6.49992C6.49992 19.5499 7.61659 20.6666 8.99992 20.6666C10.3833 20.6666 11.4999 19.5499 11.4999 18.1666H16.4999C16.4999 19.5499 17.6166 20.6666 18.9999 20.6666C20.3833 20.6666 21.4999 19.5499 21.4999 18.1666H23.1666V13.9999L20.6666 10.6666ZM8.99992 19.4166C8.30825 19.4166 7.74992 18.8583 7.74992 18.1666C7.74992 17.4749 8.30825 16.9166 8.99992 16.9166C9.69158 16.9166 10.2499 17.4749 10.2499 18.1666C10.2499 18.8583 9.69158 19.4166 8.99992 19.4166ZM20.2499 11.9166L21.8832 13.9999H18.1666V11.9166H20.2499ZM18.9999 19.4166C18.3083 19.4166 17.7499 18.8583 17.7499 18.1666C17.7499 17.4749 18.3083 16.9166 18.9999 16.9166C19.6916 16.9166 20.2499 17.4749 20.2499 18.1666C20.2499 18.8583 19.6916 19.4166 18.9999 19.4166Z" fill="#F9F9F9"/>
</svg>
