<svg width="50" height="50" viewBox="0 0 50 50" fill="none" xmlns="http://www.w3.org/2000/svg">
<path d="M10.4166 22.917H16.6666C17.8124 22.917 18.7499 21.9795 18.7499 20.8337V12.5003C18.7499 11.3545 17.8124 10.417 16.6666 10.417H10.4166C9.27075 10.417 8.33325 11.3545 8.33325 12.5003V20.8337C8.33325 21.9795 9.27075 22.917 10.4166 22.917ZM10.4166 37.5003H16.6666C17.8124 37.5003 18.7499 36.5628 18.7499 35.417V27.0837C18.7499 25.9378 17.8124 25.0003 16.6666 25.0003H10.4166C9.27075 25.0003 8.33325 25.9378 8.33325 27.0837V35.417C8.33325 36.5628 9.27075 37.5003 10.4166 37.5003ZM22.9166 37.5003H29.1666C30.3124 37.5003 31.2499 36.5628 31.2499 35.417V27.0837C31.2499 25.9378 30.3124 25.0003 29.1666 25.0003H22.9166C21.7708 25.0003 20.8333 25.9378 20.8333 27.0837V35.417C20.8333 36.5628 21.7708 37.5003 22.9166 37.5003ZM35.4166 37.5003H41.6666C42.8124 37.5003 43.7499 36.5628 43.7499 35.417V27.0837C43.7499 25.9378 42.8124 25.0003 41.6666 25.0003H35.4166C34.2708 25.0003 33.3333 25.9378 33.3333 27.0837V35.417C33.3333 36.5628 34.2708 37.5003 35.4166 37.5003ZM22.9166 22.917H29.1666C30.3124 22.917 31.2499 21.9795 31.2499 20.8337V12.5003C31.2499 11.3545 30.3124 10.417 29.1666 10.417H22.9166C21.7708 10.417 20.8333 11.3545 20.8333 12.5003V20.8337C20.8333 21.9795 21.7708 22.917 22.9166 22.917ZM33.3333 12.5003V20.8337C33.3333 21.9795 34.2708 22.917 35.4166 22.917H41.6666C42.8124 22.917 43.7499 21.9795 43.7499 20.8337V12.5003C43.7499 11.3545 42.8124 10.417 41.6666 10.417H35.4166C34.2708 10.417 33.3333 11.3545 33.3333 12.5003Z" fill="#CCCCCC"/>
</svg>
