<svg width="32" height="32" viewBox="0 0 32 32" fill="none" xmlns="http://www.w3.org/2000/svg">
<circle opacity="0.95" cx="16" cy="16" r="16" fill="#111111"/>
<path d="M23.8417 16.65L16.3417 9.14996C16.0417 8.84996 15.6251 8.66663 15.1667 8.66663H9.33341C8.41675 8.66663 7.66675 9.41663 7.66675 10.3333V16.1666C7.66675 16.625 7.85008 17.0416 8.15841 17.35L15.6584 24.85C15.9584 25.15 16.3751 25.3333 16.8334 25.3333C17.2917 25.3333 17.7084 25.15 18.0084 24.8416L23.8417 19.0083C24.1501 18.7083 24.3334 18.2916 24.3334 17.8333C24.3334 17.375 24.1417 16.95 23.8417 16.65ZM10.5834 12.8333C9.89175 12.8333 9.33341 12.275 9.33341 11.5833C9.33341 10.8916 9.89175 10.3333 10.5834 10.3333C11.2751 10.3333 11.8334 10.8916 11.8334 11.5833C11.8334 12.275 11.2751 12.8333 10.5834 12.8333Z" fill="#F9F9F9"/>
</svg>
