<svg width="122" height="32" viewBox="0 0 122 32" fill="none" xmlns="http://www.w3.org/2000/svg">
<path d="M21.189 15.65L13.564 8.14996C13.259 7.84996 12.8354 7.66663 12.3694 7.66663H6.43883C5.50688 7.66663 4.74438 8.41663 4.74438 9.33329V15.1666C4.74438 15.625 4.93077 16.0416 5.24425 16.35L12.8692 23.85C13.1742 24.15 13.5979 24.3333 14.0638 24.3333C14.5298 24.3333 14.9534 24.15 15.2584 23.8416L21.189 18.0083C21.5024 17.7083 21.6888 17.2916 21.6888 16.8333C21.6888 16.375 21.494 15.95 21.189 15.65ZM7.70966 11.8333C7.00647 11.8333 6.43883 11.275 6.43883 10.5833C6.43883 9.89163 7.00647 9.33329 7.70966 9.33329C8.41286 9.33329 8.9805 9.89163 8.9805 10.5833C8.9805 11.275 8.41286 11.8333 7.70966 11.8333Z" fill="white"/>
<rect opacity="0.95" width="122" height="32" rx="16" fill="#111111"/>
<ellipse cx="16.2667" cy="16" rx="16.2667" ry="16" fill="#111111"/>
<path d="M23.8417 16.65L16.3417 9.14996C16.0417 8.84996 15.6251 8.66663 15.1667 8.66663H9.33341C8.41675 8.66663 7.66675 9.41663 7.66675 10.3333V16.1666C7.66675 16.625 7.85008 17.0416 8.15841 17.35L15.6584 24.85C15.9584 25.15 16.3751 25.3333 16.8334 25.3333C17.2917 25.3333 17.7084 25.15 18.0084 24.8416L23.8417 19.0083C24.1501 18.7083 24.3334 18.2916 24.3334 17.8333C24.3334 17.375 24.1417 16.95 23.8417 16.65ZM10.5834 12.8333C9.89175 12.8333 9.33341 12.275 9.33341 11.5833C9.33341 10.8916 9.89175 10.3333 10.5834 10.3333C11.2751 10.3333 11.8334 10.8916 11.8334 11.5833C11.8334 12.275 11.2751 12.8333 10.5834 12.8333Z" fill="#F9F9F9"/>
<path d="M31.3193 11.0059H34.2861C35.6624 11.0059 36.6559 11.2064 37.2666 11.6074C37.8818 12.0085 38.1895 12.6419 38.1895 13.5078C38.1895 14.0911 38.0391 14.5765 37.7383 14.9639C37.4375 15.3512 37.0046 15.5951 36.4395 15.6953V15.7637C37.1413 15.8958 37.6562 16.1579 37.9844 16.5498C38.3171 16.9372 38.4834 17.4635 38.4834 18.1289C38.4834 19.0267 38.1689 19.7308 37.54 20.2412C36.9157 20.7471 36.0452 21 34.9287 21H31.3193V11.0059ZM32.9531 15.1348H34.5254C35.209 15.1348 35.708 15.0277 36.0225 14.8135C36.3369 14.5947 36.4941 14.2256 36.4941 13.7061C36.4941 13.2367 36.3232 12.8971 35.9814 12.6875C35.6442 12.4779 35.1064 12.373 34.3682 12.373H32.9531V15.1348ZM32.9531 16.4609V19.626H34.6895C35.373 19.626 35.888 19.4961 36.2344 19.2363C36.5853 18.972 36.7607 18.5573 36.7607 17.9922C36.7607 17.4727 36.583 17.0876 36.2275 16.8369C35.8721 16.5863 35.332 16.4609 34.6074 16.4609H32.9531ZM41.9971 21H40.3906V10.3633H41.9971V21ZM49.0312 21L48.71 19.9473H48.6553C48.2907 20.4076 47.9238 20.722 47.5547 20.8906C47.1855 21.0547 46.7116 21.1367 46.1328 21.1367C45.39 21.1367 44.8089 20.9362 44.3896 20.5352C43.9749 20.1341 43.7676 19.5667 43.7676 18.833C43.7676 18.0537 44.057 17.4658 44.6357 17.0693C45.2145 16.6729 46.0964 16.4564 47.2812 16.4199L48.5869 16.3789V15.9756C48.5869 15.4925 48.473 15.1325 48.2451 14.8955C48.0218 14.654 47.6732 14.5332 47.1992 14.5332C46.8118 14.5332 46.4404 14.5902 46.085 14.7041C45.7295 14.818 45.3877 14.9525 45.0596 15.1074L44.54 13.959C44.9502 13.7448 45.3991 13.583 45.8867 13.4736C46.3743 13.3597 46.8346 13.3027 47.2676 13.3027C48.2292 13.3027 48.9538 13.5124 49.4414 13.9316C49.9336 14.3509 50.1797 15.0094 50.1797 15.9072V21H49.0312ZM46.6387 19.9062C47.222 19.9062 47.6891 19.7445 48.04 19.4209C48.3955 19.0928 48.5732 18.6348 48.5732 18.0469V17.3906L47.6025 17.4316C46.846 17.459 46.2946 17.5866 45.9482 17.8145C45.6064 18.0378 45.4355 18.3818 45.4355 18.8467C45.4355 19.1839 45.5358 19.446 45.7363 19.6328C45.9368 19.8151 46.2376 19.9062 46.6387 19.9062ZM55.4707 21.1367C54.3268 21.1367 53.4564 20.804 52.8594 20.1387C52.2669 19.4688 51.9707 18.5094 51.9707 17.2607C51.9707 15.9893 52.2806 15.0117 52.9004 14.3281C53.5247 13.6445 54.4248 13.3027 55.6006 13.3027C56.3981 13.3027 57.1159 13.4508 57.7539 13.7471L57.2686 15.0391C56.5895 14.7747 56.029 14.6426 55.5869 14.6426C54.279 14.6426 53.625 15.5107 53.625 17.2471C53.625 18.0947 53.7868 18.7327 54.1104 19.1611C54.4385 19.585 54.917 19.7969 55.5459 19.7969C56.2614 19.7969 56.9382 19.6191 57.5762 19.2637V20.665C57.2891 20.8337 56.9814 20.9544 56.6533 21.0273C56.3298 21.1003 55.9355 21.1367 55.4707 21.1367ZM60.9053 17.0078L61.8145 15.873L64.0977 13.4395H65.9502L62.9082 16.6865L66.1416 21H64.2549L61.8281 17.6846L60.9463 18.4092V21H59.3535V10.3633H60.9463V15.5518L60.8643 17.0078H60.9053ZM72.793 21H71.1729V11.0059H76.8125V12.3867H72.793V15.5107H76.5596V16.8984H72.793V21ZM82.2881 13.3027C82.6117 13.3027 82.8783 13.3255 83.0879 13.3711L82.9307 14.8682C82.7028 14.8135 82.4658 14.7861 82.2197 14.7861C81.5771 14.7861 81.0553 14.9958 80.6543 15.415C80.2578 15.8343 80.0596 16.3789 80.0596 17.0488V21H78.4531V13.4395H79.7109L79.9229 14.7725H80.0049C80.2555 14.3213 80.5814 13.9635 80.9824 13.6992C81.388 13.4349 81.8232 13.3027 82.2881 13.3027ZM86.1025 21H84.4961V13.4395H86.1025V21ZM84.4004 11.4365C84.4004 11.1494 84.4779 10.9284 84.6328 10.7734C84.7923 10.6185 85.0179 10.541 85.3096 10.541C85.5921 10.541 85.8109 10.6185 85.9658 10.7734C86.1253 10.9284 86.2051 11.1494 86.2051 11.4365C86.2051 11.71 86.1253 11.9264 85.9658 12.0859C85.8109 12.2409 85.5921 12.3184 85.3096 12.3184C85.0179 12.3184 84.7923 12.2409 84.6328 12.0859C84.4779 11.9264 84.4004 11.71 84.4004 11.4365ZM90.9561 21.1367C90.0127 21.1367 89.2767 20.7949 88.748 20.1113C88.2194 19.4277 87.9551 18.4684 87.9551 17.2334C87.9551 15.9938 88.2217 15.0299 88.7549 14.3418C89.2926 13.6491 90.0355 13.3027 90.9834 13.3027C91.9769 13.3027 92.7334 13.6696 93.2529 14.4033H93.335C93.2575 13.861 93.2188 13.4326 93.2188 13.1182V10.3633H94.832V21H93.5742L93.2939 20.0088H93.2188C92.7038 20.7607 91.9495 21.1367 90.9561 21.1367ZM91.3867 19.8379C92.0475 19.8379 92.5283 19.6533 92.8291 19.2842C93.1299 18.9105 93.2848 18.3066 93.2939 17.4727V17.2471C93.2939 16.2946 93.139 15.6178 92.8291 15.2168C92.5192 14.8158 92.0339 14.6152 91.373 14.6152C90.8079 14.6152 90.3727 14.8454 90.0674 15.3057C89.762 15.7614 89.6094 16.4131 89.6094 17.2607C89.6094 18.0993 89.7575 18.7396 90.0537 19.1816C90.3499 19.6191 90.7943 19.8379 91.3867 19.8379ZM101.859 21L101.538 19.9473H101.483C101.119 20.4076 100.752 20.722 100.383 20.8906C100.014 21.0547 99.5397 21.1367 98.9609 21.1367C98.2181 21.1367 97.637 20.9362 97.2178 20.5352C96.8031 20.1341 96.5957 19.5667 96.5957 18.833C96.5957 18.0537 96.8851 17.4658 97.4639 17.0693C98.0426 16.6729 98.9245 16.4564 100.109 16.4199L101.415 16.3789V15.9756C101.415 15.4925 101.301 15.1325 101.073 14.8955C100.85 14.654 100.501 14.5332 100.027 14.5332C99.64 14.5332 99.2686 14.5902 98.9131 14.7041C98.5576 14.818 98.2158 14.9525 97.8877 15.1074L97.3682 13.959C97.7783 13.7448 98.2272 13.583 98.7148 13.4736C99.2025 13.3597 99.6628 13.3027 100.096 13.3027C101.057 13.3027 101.782 13.5124 102.27 13.9316C102.762 14.3509 103.008 15.0094 103.008 15.9072V21H101.859ZM99.4668 19.9062C100.05 19.9062 100.517 19.7445 100.868 19.4209C101.224 19.0928 101.401 18.6348 101.401 18.0469V17.3906L100.431 17.4316C99.6742 17.459 99.1227 17.5866 98.7764 17.8145C98.4346 18.0378 98.2637 18.3818 98.2637 18.8467C98.2637 19.1839 98.3639 19.446 98.5645 19.6328C98.765 19.8151 99.0658 19.9062 99.4668 19.9062ZM104.102 13.4395H105.852L107.39 17.7256C107.622 18.3363 107.777 18.9105 107.854 19.4482H107.909C107.95 19.1976 108.025 18.8945 108.135 18.5391C108.244 18.179 108.823 16.4792 109.871 13.4395H111.607L108.374 22.0049C107.786 23.5771 106.806 24.3633 105.435 24.3633C105.079 24.3633 104.733 24.3245 104.396 24.2471V22.9756C104.637 23.0303 104.913 23.0576 105.223 23.0576C105.997 23.0576 106.542 22.6087 106.856 21.7109L107.137 21L104.102 13.4395Z" fill="#F9F9F9"/>
</svg>
