<svg width="32" height="32" viewBox="0 0 32 32" fill="none" xmlns="http://www.w3.org/2000/svg">
<circle opacity="0.6" cx="16" cy="16" r="16" fill="white"/>
<path d="M24.9368 7.65503C21.8568 5.55503 18.0534 6.53503 16.0001 8.93836C13.9468 6.53503 10.1434 5.54336 7.06342 7.65503C5.43009 8.77503 4.40342 10.665 4.33342 12.66C4.17009 17.1867 8.18342 20.815 14.3084 26.38L14.4251 26.485C15.3118 27.29 16.6768 27.29 17.5634 26.4734L17.6918 26.3567C23.8168 20.8034 27.8184 17.175 27.6668 12.6484C27.5968 10.665 26.5701 8.77503 24.9368 7.65503ZM16.1168 24.6417L16.0001 24.7584L15.8834 24.6417C10.3301 19.6134 6.66675 16.2884 6.66675 12.9167C6.66675 10.5834 8.41675 8.83336 10.7501 8.83336C12.5468 8.83336 14.2968 9.98836 14.9151 11.5867H17.0968C17.7034 9.98836 19.4534 8.83336 21.2501 8.83336C23.5834 8.83336 25.3334 10.5834 25.3334 12.9167C25.3334 16.2884 21.6701 19.6134 16.1168 24.6417Z" fill="#F4831F"/>
</svg>
